<svg xmlns="http://www.w3.org/2000/svg" viewBox="0 0 48 60" x="0px" y="0px"><title>New year vol.1</title><g data-name="Layer 2"><path d="M36.582,15.8877C36.582,8.42529,30.938,2.354,24,2.354S11.418,8.42529,11.418,15.8877A13.42914,13.42914,0,0,0,20.6297,28.91321l-.73663,3.24695a1,1,0,0,0,.97509,1.22119h1.34693a4.948,4.948,0,0,0,.531,3.77539c1.30762,2.40478,1.22217,3.03222.24854,4.8999-1.49463,2.86768.16455,4.3374.23584,4.39844a1.03354,1.03354,0,0,0,.67236.24707.99167.99167,0,0,0,.6626-1.73535c-.022-.023-.52832-.58252.20264-1.98535,1.34619-2.58252,1.29394-3.91309-.26514-6.78028a2.69845,2.69845,0,0,1-.13519-2.81982h2.52679a.99984.99984,0,0,0,.98584-1.16651l-.55579-3.28894A13.42344,13.42344,0,0,0,36.582,15.8877ZM25.71143,31.38135H22.12061l.46527-2.05176a11.10756,11.10756,0,0,0,2.78027.00787ZM24,27.4209c-5.835,0-10.582-5.17383-10.582-11.5332C13.418,9.52783,18.165,4.354,24,4.354S34.582,9.52783,34.582,15.8877C34.582,22.24707,29.835,27.4209,24,27.4209Z"/><path d="M24,7.47949a8.15084,8.15084,0,0,0-7.8457,8.40821,1,1,0,1,0,2,0A6.15336,6.15336,0,0,1,24,9.47949a1,1,0,0,0,0-2Z"/></g><text x="0" y="63" fill="#000000" font-size="5px" font-weight="bold" font-family="'Helvetica Neue', Helvetica, Arial-Unicode, Arial, Sans-serif">Created by BlackActurus</text><text x="0" y="68" fill="#000000" font-size="5px" font-weight="bold" font-family="'Helvetica Neue', Helvetica, Arial-Unicode, Arial, Sans-serif">from the Noun Project</text></svg>